# xmcd CD database file
#
# Track frame offsets:
#	150
#	10408
#	27205
#	38798
#	55038
#	66920
#	76818
#	90400
#	105543
#	118993
#	129870
#	141960
#	154353
#	170628
#	184168
#	198503
#	211640
#	222498
#
# Disc length: 3152 seconds
#
# Revision: 3
# Processed by: cddbd v1.5.2PL0 Copyright (c) Steve Scherf et al.
# Submitted via: CDex 1.51
#
DISCID=fa0c4e12
DTITLE=Various Artist - Golden Country Groups - Disc 2
DYEAR=1988
DGENRE=Country
TTITLE0=The Statler Brothers - There Is You
TTITLE1=Alabama - Touch Me When We're Dancing
TTITLE2=Dave Rowland And Sugar - Tear Time
TTITLE3=Atlanta - Sweet Country Music
TTITLE4=Tompall And The Glaser Brothers - It'll Be Her
TTITLE5=The Whites - Pins And Needles
TTITLE6=Bobby Bare And Skeeter Davis - Let It Be Me
TTITLE7=Waylon Jennings And Willie Nelson - (Sittin' On) The Dock Of The Bay
TTITLE8=Loretta Lynn And Conway Twitty - Release Me
TTITLE9=The Statler Brothers - Oh, Baby Mine (I Get So Lonely)
TTITLE10=Kenny Rogers And The First Edition - Me And Bobby McGee
TTITLE11=John Anderson And Emmylou Harris - The Waltz You Saved For Me
TTITLE12=Alabama - When We Make Love
TTITLE13=The Bellamy Brothers - Do You Love As Good As You Look
TTITLE14=Loretta Lynn And Conway Twitty - I Still Believe In Waltzes
TTITLE15=Jim Ed Brown And Helen Cornelius - I'll Never Be Free
TTITLE16=The Everly Brothers - 'Til I Kissed You
TTITLE17=Barbara Mandrell And Lee Greenwood - It Should Have Been Love By Now
EXTD=YEAR: 1988
EXTT0=
EXTT1=
EXTT2=
EXTT3=
EXTT4=
EXTT5=
EXTT6=
EXTT7=
EXTT8=
EXTT9=
EXTT10=
EXTT11=
EXTT12=
EXTT13=
EXTT14=
EXTT15=
EXTT16=
EXTT17=
PLAYORDER=
